

Release info:

General
Format                                   : Matroska
Format version                           : Version 2
File size                                : 694 MiB
Duration                                 : 1h 22mn
Overall bit rate mode                    : Variable
Overall bit rate                         : 1 178 Kbps

Video
ID                                       : 1
Format                                   : MPEG-4 Visual
Format profile                           : Advanced Simple@L5
Format settings, BVOP                    : Yes
Format settings, QPel                    : No
Format settings, GMC                     : No warppoints
Format settings, Matrix                  : Default (H.263)
Codec ID                                 : V_MS/VFW/FOURCC / XVID
Codec ID/Hint                            : XviD
Duration                                 : 1h 22mn
Bit rate                                 : 1 022 Kbps
Width                                    : 640 pixels
Height                                   : 272 pixels
Display aspect ratio                     : 2.35:1
Frame rate mode                          : Constant
Frame rate                               : 23.976 fps
Color space                              : YUV
Chroma subsampling                       : 4:2:0
Bit depth                                : 8 bits
Scan type                                : Progressive
Compression mode                         : Lossy
Bits/(Pixel*Frame)                       : 0.245
Stream size                              : 602 MiB (87%)
Language                                 : English
Default                                  : Yes
Forced                                   : No

Audio
ID                                       : 2
Format                                   : MPEG Audio
Format version                           : Version 1
Format profile                           : Layer 3
Mode                                     : Joint stereo
Mode extension                           : MS Stereo
Muxing mode                              : Header stripping
Codec ID                                 : A_MPEG/L3
Codec ID/Hint                            : MP3
Duration                                 : 1h 22mn
Bit rate mode                            : Variable
Bit rate                                 : 133 Kbps
Minimum bit rate                         : 32.0 Kbps
Channel(s)                               : 2 channels
Sampling rate                            : 48.0 KHz
Compression mode                         : Lossy
Stream size                              : 78.2 MiB (11%)
Language                                 : English
Default                                  : Yes
Forced                                   : No


Source:
credit to original movie ripper sparks (Thanks)

IMDB Info:

A couple is haunted by a supernatural presence that is unleashed during a college experiment.

Director: Todd Lincoln
Writer: Todd Lincoln
Stars: Ashley Greene, Sebastian Stan and Tom Felton

Genres: Horror | Thriller
 
http://www.imdb.com/title/tt1433822/

Screen Shot:
 
http://www.shotpix.com/images/85106111326434764091.png 
http://www.shotpix.com/images/83072495056597430157.png 
http://www.shotpix.com/images/82111736931194726633.png 
http://www.shotpix.com/images/16846596538711709209.png